ply
format ascii 1.0
comment Created by Blender 2.82 (sub 7) - www.blender.org, source file: ''
element vertex 120
property float x
property float y
property float z
property float nx
property float ny
property float nz
property float s
property float t
element face 30
property list uchar uint vertex_indices
end_header
-0.497529 -0.497529 -0.052696 -1.000000 -0.000000 0.000000 0.375000 0.000000
-0.497529 -0.497529 0.000052 -1.000000 -0.000000 0.000000 0.625000 0.000000
-0.497529 0.497529 0.000052 -1.000000 -0.000000 0.000000 0.625000 0.250000
-0.497529 0.497529 -0.052696 -1.000000 -0.000000 0.000000 0.375000 0.250000
-0.497529 0.497529 -0.052696 0.000000 1.000000 0.000000 0.375000 0.250000
-0.497529 0.497529 0.000052 0.000000 1.000000 0.000000 0.625000 0.250000
0.497529 0.497529 0.000052 0.000000 1.000000 0.000000 0.625000 0.500000
0.497529 0.497529 -0.052696 0.000000 1.000000 0.000000 0.375000 0.500000
0.497529 0.497529 -0.052696 1.000000 -0.000000 0.000000 0.375000 0.500000
0.497529 0.497529 0.000052 1.000000 -0.000000 0.000000 0.625000 0.500000
0.497529 -0.497529 0.000052 1.000000 -0.000000 0.000000 0.625000 0.750000
0.497529 -0.497529 -0.052696 1.000000 -0.000000 0.000000 0.375000 0.750000
0.497529 -0.497529 -0.052696 0.000000 -1.000000 0.000000 0.375000 0.750000
0.497529 -0.497529 0.000052 0.000000 -1.000000 0.000000 0.625000 0.750000
-0.497529 -0.497529 0.000052 0.000000 -1.000000 0.000000 0.625000 1.000000
-0.497529 -0.497529 -0.052696 0.000000 -1.000000 0.000000 0.375000 1.000000
-0.497529 0.497529 -0.052696 0.000000 0.000000 -1.000000 0.125000 0.500000
0.497529 0.497529 -0.052696 0.000000 0.000000 -1.000000 0.375000 0.500000
0.497529 -0.497529 -0.052696 0.000000 0.000000 -1.000000 0.375000 0.750000
-0.497529 -0.497529 -0.052696 0.000000 0.000000 -1.000000 0.125000 0.750000
0.497529 0.497529 0.000052 0.000000 -0.000000 1.000000 0.625000 0.500000
-0.497529 0.497529 0.000052 0.000000 -0.000000 1.000000 0.875000 0.500000
-0.497529 -0.497529 0.000052 0.000000 -0.000000 1.000000 0.875000 0.750000
0.497529 -0.497529 0.000052 0.000000 -0.000000 1.000000 0.625000 0.750000
-0.497408 -0.499240 -0.595216 -1.000000 -0.000000 0.000000 0.375000 0.000000
-0.497408 -0.499240 -0.052440 -1.000000 -0.000000 0.000000 0.625000 0.000000
-0.497408 -0.401912 -0.052440 -1.000000 -0.000000 0.000000 0.625000 0.250000
-0.497408 -0.401912 -0.595216 -1.000000 -0.000000 0.000000 0.375000 0.250000
-0.497408 -0.401912 -0.595216 0.000000 1.000000 0.000000 0.375000 0.250000
-0.497408 -0.401912 -0.052440 0.000000 1.000000 0.000000 0.625000 0.250000
-0.400080 -0.401912 -0.052440 0.000000 1.000000 0.000000 0.625000 0.500000
-0.400080 -0.401912 -0.595216 0.000000 1.000000 0.000000 0.375000 0.500000
-0.400080 -0.401912 -0.595216 1.000000 -0.000000 0.000000 0.375000 0.500000
-0.400080 -0.401912 -0.052440 1.000000 -0.000000 0.000000 0.625000 0.500000
-0.400080 -0.499240 -0.052440 1.000000 -0.000000 0.000000 0.625000 0.750000
-0.400080 -0.499240 -0.595216 1.000000 -0.000000 0.000000 0.375000 0.750000
-0.400080 -0.499240 -0.595216 0.000000 -1.000000 0.000000 0.375000 0.750000
-0.400080 -0.499240 -0.052440 0.000000 -1.000000 0.000000 0.625000 0.750000
-0.497408 -0.499240 -0.052440 0.000000 -1.000000 0.000000 0.625000 1.000000
-0.497408 -0.499240 -0.595216 0.000000 -1.000000 0.000000 0.375000 1.000000
-0.497408 -0.401912 -0.595216 0.000000 0.000000 -1.000000 0.125000 0.500000
-0.400080 -0.401912 -0.595216 0.000000 0.000000 -1.000000 0.375000 0.500000
-0.400080 -0.499240 -0.595216 0.000000 0.000000 -1.000000 0.375000 0.750000
-0.497408 -0.499240 -0.595216 0.000000 0.000000 -1.000000 0.125000 0.750000
-0.400080 -0.401912 -0.052440 0.000000 -0.000000 1.000000 0.625000 0.500000
-0.497408 -0.401912 -0.052440 0.000000 -0.000000 1.000000 0.875000 0.500000
-0.497408 -0.499240 -0.052440 0.000000 -0.000000 1.000000 0.875000 0.750000
-0.400080 -0.499240 -0.052440 0.000000 -0.000000 1.000000 0.625000 0.750000
0.400080 -0.495576 -0.595216 -1.000000 -0.000000 0.000000 0.375000 0.000000
0.400080 -0.495576 -0.052440 -1.000000 -0.000000 0.000000 0.625000 0.000000
0.400080 -0.398249 -0.052440 -1.000000 -0.000000 0.000000 0.625000 0.250000
0.400080 -0.398249 -0.595216 -1.000000 -0.000000 0.000000 0.375000 0.250000
0.400080 -0.398249 -0.595216 0.000000 1.000000 0.000000 0.375000 0.250000
0.400080 -0.398249 -0.052440 0.000000 1.000000 0.000000 0.625000 0.250000
0.497408 -0.398249 -0.052440 0.000000 1.000000 0.000000 0.625000 0.500000
0.497408 -0.398249 -0.595216 0.000000 1.000000 0.000000 0.375000 0.500000
0.497408 -0.398249 -0.595216 1.000000 -0.000000 0.000000 0.375000 0.500000
0.497408 -0.398249 -0.052440 1.000000 -0.000000 0.000000 0.625000 0.500000
0.497408 -0.495576 -0.052440 1.000000 -0.000000 0.000000 0.625000 0.750000
0.497408 -0.495576 -0.595216 1.000000 -0.000000 0.000000 0.375000 0.750000
0.497408 -0.495576 -0.595216 0.000000 -1.000000 0.000000 0.375000 0.750000
0.497408 -0.495576 -0.052440 0.000000 -1.000000 0.000000 0.625000 0.750000
0.400080 -0.495576 -0.052440 0.000000 -1.000000 0.000000 0.625000 1.000000
0.400080 -0.495576 -0.595216 0.000000 -1.000000 0.000000 0.375000 1.000000
0.400080 -0.398249 -0.595216 0.000000 0.000000 -1.000000 0.125000 0.500000
0.497408 -0.398249 -0.595216 0.000000 0.000000 -1.000000 0.375000 0.500000
0.497408 -0.495576 -0.595216 0.000000 0.000000 -1.000000 0.375000 0.750000
0.400080 -0.495576 -0.595216 0.000000 0.000000 -1.000000 0.125000 0.750000
0.497408 -0.398249 -0.052440 0.000000 -0.000000 1.000000 0.625000 0.500000
0.400080 -0.398249 -0.052440 0.000000 -0.000000 1.000000 0.875000 0.500000
0.400080 -0.495576 -0.052440 0.000000 -0.000000 1.000000 0.875000 0.750000
0.497408 -0.495576 -0.052440 0.000000 -0.000000 1.000000 0.625000 0.750000
0.400080 0.400080 -0.595216 -1.000000 -0.000000 0.000000 0.375000 0.000000
0.400080 0.400080 -0.052440 -1.000000 -0.000000 0.000000 0.625000 0.000000
0.400080 0.497408 -0.052440 -1.000000 -0.000000 0.000000 0.625000 0.250000
0.400080 0.497408 -0.595216 -1.000000 -0.000000 0.000000 0.375000 0.250000
0.400080 0.497408 -0.595216 0.000000 1.000000 0.000000 0.375000 0.250000
0.400080 0.497408 -0.052440 0.000000 1.000000 0.000000 0.625000 0.250000
0.497408 0.497408 -0.052440 0.000000 1.000000 0.000000 0.625000 0.500000
0.497408 0.497408 -0.595216 0.000000 1.000000 0.000000 0.375000 0.500000
0.497408 0.497408 -0.595216 1.000000 -0.000000 0.000000 0.375000 0.500000
0.497408 0.497408 -0.052440 1.000000 -0.000000 0.000000 0.625000 0.500000
0.497408 0.400080 -0.052440 1.000000 -0.000000 0.000000 0.625000 0.750000
0.497408 0.400080 -0.595216 1.000000 -0.000000 0.000000 0.375000 0.750000
0.497408 0.400080 -0.595216 0.000000 -1.000000 0.000000 0.375000 0.750000
0.497408 0.400080 -0.052440 0.000000 -1.000000 0.000000 0.625000 0.750000
0.400080 0.400080 -0.052440 0.000000 -1.000000 0.000000 0.625000 1.000000
0.400080 0.400080 -0.595216 0.000000 -1.000000 0.000000 0.375000 1.000000
0.400080 0.497408 -0.595216 0.000000 0.000000 -1.000000 0.125000 0.500000
0.497408 0.497408 -0.595216 0.000000 0.000000 -1.000000 0.375000 0.500000
0.497408 0.400080 -0.595216 0.000000 0.000000 -1.000000 0.375000 0.750000
0.400080 0.400080 -0.595216 0.000000 0.000000 -1.000000 0.125000 0.750000
0.497408 0.497408 -0.052440 0.000000 -0.000000 1.000000 0.625000 0.500000
0.400080 0.497408 -0.052440 0.000000 -0.000000 1.000000 0.875000 0.500000
0.400080 0.400080 -0.052440 0.000000 -0.000000 1.000000 0.875000 0.750000
0.497408 0.400080 -0.052440 0.000000 -0.000000 1.000000 0.625000 0.750000
-0.497408 0.398248 -0.595216 -1.000000 -0.000000 0.000000 0.375000 0.000000
-0.497408 0.398248 -0.052440 -1.000000 -0.000000 0.000000 0.625000 0.000000
-0.497408 0.495576 -0.052440 -1.000000 -0.000000 0.000000 0.625000 0.250000
-0.497408 0.495576 -0.595216 -1.000000 -0.000000 0.000000 0.375000 0.250000
-0.497408 0.495576 -0.595216 0.000000 1.000000 0.000000 0.375000 0.250000
-0.497408 0.495576 -0.052440 0.000000 1.000000 0.000000 0.625000 0.250000
-0.400080 0.495576 -0.052440 0.000000 1.000000 0.000000 0.625000 0.500000
-0.400080 0.495576 -0.595216 0.000000 1.000000 0.000000 0.375000 0.500000
-0.400080 0.495576 -0.595216 1.000000 -0.000000 0.000000 0.375000 0.500000
-0.400080 0.495576 -0.052440 1.000000 -0.000000 0.000000 0.625000 0.500000
-0.400080 0.398248 -0.052440 1.000000 -0.000000 0.000000 0.625000 0.750000
-0.400080 0.398248 -0.595216 1.000000 -0.000000 0.000000 0.375000 0.750000
-0.400080 0.398248 -0.595216 0.000000 -1.000000 0.000000 0.375000 0.750000
-0.400080 0.398248 -0.052440 0.000000 -1.000000 0.000000 0.625000 0.750000
-0.497408 0.398248 -0.052440 0.000000 -1.000000 0.000000 0.625000 1.000000
-0.497408 0.398248 -0.595216 0.000000 -1.000000 0.000000 0.375000 1.000000
-0.497408 0.495576 -0.595216 0.000000 0.000000 -1.000000 0.125000 0.500000
-0.400080 0.495576 -0.595216 0.000000 0.000000 -1.000000 0.375000 0.500000
-0.400080 0.398248 -0.595216 0.000000 0.000000 -1.000000 0.375000 0.750000
-0.497408 0.398248 -0.595216 0.000000 0.000000 -1.000000 0.125000 0.750000
-0.400080 0.495576 -0.052440 0.000000 -0.000000 1.000000 0.625000 0.500000
-0.497408 0.495576 -0.052440 0.000000 -0.000000 1.000000 0.875000 0.500000
-0.497408 0.398248 -0.052440 0.000000 -0.000000 1.000000 0.875000 0.750000
-0.400080 0.398248 -0.052440 0.000000 -0.000000 1.000000 0.625000 0.750000
4 0 1 2 3
4 4 5 6 7
4 8 9 10 11
4 12 13 14 15
4 16 17 18 19
4 20 21 22 23
4 24 25 26 27
4 28 29 30 31
4 32 33 34 35
4 36 37 38 39
4 40 41 42 43
4 44 45 46 47
4 48 49 50 51
4 52 53 54 55
4 56 57 58 59
4 60 61 62 63
4 64 65 66 67
4 68 69 70 71
4 72 73 74 75
4 76 77 78 79
4 80 81 82 83
4 84 85 86 87
4 88 89 90 91
4 92 93 94 95
4 96 97 98 99
4 100 101 102 103
4 104 105 106 107
4 108 109 110 111
4 112 113 114 115
4 116 117 118 119
