ply
format ascii 1.0
comment Created by Blender 2.82 (sub 7) - www.blender.org, source file: ''
element vertex 192
property float x
property float y
property float z
property float nx
property float ny
property float nz
property float s
property float t
element face 124
property list uchar uint vertex_indices
end_header
-0.000000 0.007867 0.005992 0.098017 0.995185 0.000000 1.000000 1.000000
0.001535 0.007716 -0.000003 0.098017 0.995185 0.000000 0.968750 0.500000
-0.000000 0.007867 -0.000003 0.098017 0.995185 0.000000 1.000000 0.500000
0.001535 0.007716 0.005992 0.290284 0.956940 0.000000 0.968750 1.000000
0.003011 0.007269 -0.000003 0.290284 0.956940 0.000000 0.937500 0.500000
0.001535 0.007716 -0.000003 0.290284 0.956940 0.000000 0.968750 0.500000
0.003011 0.007269 0.005992 0.471397 0.881921 0.000000 0.937500 1.000000
0.004371 0.006542 -0.000003 0.471397 0.881921 0.000000 0.906250 0.500000
0.003011 0.007269 -0.000003 0.471397 0.881921 0.000000 0.937500 0.500000
0.004371 0.006542 0.005992 0.634393 0.773010 0.000000 0.906250 1.000000
0.005563 0.005563 -0.000003 0.634393 0.773010 0.000000 0.875000 0.500000
0.004371 0.006542 -0.000003 0.634393 0.773010 0.000000 0.906250 0.500000
0.005563 0.005563 0.005992 0.773010 0.634394 0.000000 0.875000 1.000000
0.006542 0.004371 -0.000003 0.773010 0.634394 0.000000 0.843750 0.500000
0.005563 0.005563 -0.000003 0.773010 0.634394 0.000000 0.875000 0.500000
0.006542 0.004371 0.005992 0.881921 0.471396 0.000000 0.843750 1.000000
0.007269 0.003011 -0.000003 0.881921 0.471396 0.000000 0.812500 0.500000
0.006542 0.004371 -0.000003 0.881921 0.471396 0.000000 0.843750 0.500000
0.007269 0.003011 0.005992 0.956940 0.290285 0.000000 0.812500 1.000000
0.007716 0.001535 -0.000003 0.956940 0.290285 0.000000 0.781250 0.500000
0.007269 0.003011 -0.000003 0.956940 0.290285 0.000000 0.812500 0.500000
0.007716 0.001535 0.005992 0.995185 0.098017 0.000000 0.781250 1.000000
0.007867 0.000000 -0.000003 0.995185 0.098017 0.000000 0.750000 0.500000
0.007716 0.001535 -0.000003 0.995185 0.098017 0.000000 0.781250 0.500000
0.007867 0.000000 0.005992 0.995185 -0.098017 0.000000 0.750000 1.000000
0.007716 -0.001535 -0.000003 0.995185 -0.098017 0.000000 0.718750 0.500000
0.007867 0.000000 -0.000003 0.995185 -0.098017 0.000000 0.750000 0.500000
0.007716 -0.001535 0.005992 0.956940 -0.290285 0.000000 0.718750 1.000000
0.007269 -0.003011 -0.000003 0.956940 -0.290285 0.000000 0.687500 0.500000
0.007716 -0.001535 -0.000003 0.956940 -0.290285 0.000000 0.718750 0.500000
0.007269 -0.003011 0.005992 0.881922 -0.471396 0.000000 0.687500 1.000000
0.006542 -0.004371 -0.000003 0.881922 -0.471396 0.000000 0.656250 0.500000
0.007269 -0.003011 -0.000003 0.881922 -0.471396 0.000000 0.687500 0.500000
0.006542 -0.004371 0.005992 0.773010 -0.634394 0.000000 0.656250 1.000000
0.005563 -0.005563 -0.000003 0.773010 -0.634394 0.000000 0.625000 0.500000
0.006542 -0.004371 -0.000003 0.773010 -0.634394 0.000000 0.656250 0.500000
0.005563 -0.005563 0.005992 0.634394 -0.773010 0.000000 0.625000 1.000000
0.004371 -0.006542 -0.000003 0.634394 -0.773010 0.000000 0.593750 0.500000
0.005563 -0.005563 -0.000003 0.634394 -0.773010 0.000000 0.625000 0.500000
0.004371 -0.006542 0.005992 0.471397 -0.881921 0.000000 0.593750 1.000000
0.003011 -0.007269 -0.000003 0.471397 -0.881921 0.000000 0.562500 0.500000
0.004371 -0.006542 -0.000003 0.471397 -0.881921 0.000000 0.593750 0.500000
0.003011 -0.007269 0.005992 0.290284 -0.956941 0.000000 0.562500 1.000000
0.001535 -0.007716 -0.000003 0.290284 -0.956941 0.000000 0.531250 0.500000
0.003011 -0.007269 -0.000003 0.290284 -0.956941 0.000000 0.562500 0.500000
0.001535 -0.007716 0.005992 0.098017 -0.995185 0.000000 0.531250 1.000000
-0.000000 -0.007867 -0.000003 0.098017 -0.995185 0.000000 0.500000 0.500000
0.001535 -0.007716 -0.000003 0.098017 -0.995185 0.000000 0.531250 0.500000
-0.000000 -0.007867 0.005992 -0.098018 -0.995185 0.000000 0.500000 1.000000
-0.001535 -0.007716 -0.000003 -0.098018 -0.995185 0.000000 0.468750 0.500000
-0.000000 -0.007867 -0.000003 -0.098018 -0.995185 0.000000 0.500000 0.500000
-0.001535 -0.007716 0.005992 -0.290285 -0.956940 0.000000 0.468750 1.000000
-0.003011 -0.007269 -0.000003 -0.290285 -0.956940 0.000000 0.437500 0.500000
-0.001535 -0.007716 -0.000003 -0.290285 -0.956940 0.000000 0.468750 0.500000
-0.003011 -0.007269 0.005992 -0.471397 -0.881921 0.000000 0.437500 1.000000
-0.004371 -0.006542 -0.000003 -0.471397 -0.881921 0.000000 0.406250 0.500000
-0.003011 -0.007269 -0.000003 -0.471397 -0.881921 0.000000 0.437500 0.500000
-0.004371 -0.006542 0.005992 -0.634394 -0.773010 0.000000 0.406250 1.000000
-0.005563 -0.005563 -0.000003 -0.634394 -0.773010 0.000000 0.375000 0.500000
-0.004371 -0.006542 -0.000003 -0.634394 -0.773010 0.000000 0.406250 0.500000
-0.005563 -0.005563 0.005992 -0.773011 -0.634393 0.000000 0.375000 1.000000
-0.006542 -0.004371 -0.000003 -0.773011 -0.634393 0.000000 0.343750 0.500000
-0.005563 -0.005563 -0.000003 -0.773011 -0.634393 0.000000 0.375000 0.500000
-0.006542 -0.004371 0.005992 -0.881922 -0.471396 0.000000 0.343750 1.000000
-0.007269 -0.003011 -0.000003 -0.881922 -0.471396 0.000000 0.312500 0.500000
-0.006542 -0.004371 -0.000003 -0.881922 -0.471396 0.000000 0.343750 0.500000
-0.007269 -0.003011 0.005992 -0.956941 -0.290284 0.000000 0.312500 1.000000
-0.007716 -0.001535 -0.000003 -0.956941 -0.290284 0.000000 0.281250 0.500000
-0.007269 -0.003011 -0.000003 -0.956941 -0.290284 0.000000 0.312500 0.500000
-0.007716 -0.001535 0.005992 -0.995185 -0.098016 0.000000 0.281250 1.000000
-0.007867 0.000000 -0.000003 -0.995185 -0.098016 0.000000 0.250000 0.500000
-0.007716 -0.001535 -0.000003 -0.995185 -0.098016 0.000000 0.281250 0.500000
-0.007867 0.000000 0.005992 -0.995185 0.098018 0.000000 0.250000 1.000000
-0.007716 0.001535 -0.000003 -0.995185 0.098018 0.000000 0.218750 0.500000
-0.007867 0.000000 -0.000003 -0.995185 0.098018 0.000000 0.250000 0.500000
-0.007716 0.001535 0.005992 -0.956940 0.290286 0.000000 0.218750 1.000000
-0.007269 0.003011 -0.000003 -0.956940 0.290286 0.000000 0.187500 0.500000
-0.007716 0.001535 -0.000003 -0.956940 0.290286 0.000000 0.218750 0.500000
-0.007269 0.003011 0.005992 -0.881921 0.471398 0.000000 0.187500 1.000000
-0.006542 0.004371 -0.000003 -0.881921 0.471398 0.000000 0.156250 0.500000
-0.007269 0.003011 -0.000003 -0.881921 0.471398 0.000000 0.187500 0.500000
-0.006542 0.004371 0.005992 -0.773010 0.634394 0.000000 0.156250 1.000000
-0.005563 0.005563 -0.000003 -0.773010 0.634394 0.000000 0.125000 0.500000
-0.006542 0.004371 -0.000003 -0.773010 0.634394 0.000000 0.156250 0.500000
-0.005563 0.005563 0.005992 -0.634392 0.773011 0.000000 0.125000 1.000000
-0.004371 0.006542 -0.000003 -0.634392 0.773011 0.000000 0.093750 0.500000
-0.005563 0.005563 -0.000003 -0.634392 0.773011 0.000000 0.125000 0.500000
-0.004371 0.006542 0.005992 -0.471395 0.881922 0.000000 0.093750 1.000000
-0.003011 0.007269 -0.000003 -0.471395 0.881922 0.000000 0.062500 0.500000
-0.004371 0.006542 -0.000003 -0.471395 0.881922 0.000000 0.093750 0.500000
-0.007269 0.003011 0.005992 0.000000 0.000000 1.000000 0.028269 0.341844
-0.003011 -0.007269 0.005992 0.000000 0.000000 1.000000 0.158156 0.028269
0.007269 -0.003011 0.005992 0.000000 0.000000 1.000000 0.471731 0.158156
-0.003011 0.007269 0.005992 -0.290283 0.956941 0.000000 0.062500 1.000000
-0.001535 0.007716 -0.000003 -0.290283 0.956941 0.000000 0.031250 0.500000
-0.003011 0.007269 -0.000003 -0.290283 0.956941 0.000000 0.062500 0.500000
-0.001535 0.007716 0.005992 -0.098016 0.995185 0.000000 0.031250 1.000000
-0.000000 0.007867 -0.000003 -0.098016 0.995185 0.000000 0.000000 0.500000
-0.001535 0.007716 -0.000003 -0.098016 0.995185 0.000000 0.031250 0.500000
0.007716 0.001535 -0.000003 0.000000 0.000000 -1.000000 0.985388 0.296822
0.001535 -0.007716 -0.000003 0.000000 0.000000 -1.000000 0.796822 0.014612
-0.007716 -0.001535 -0.000003 0.000000 0.000000 -1.000000 0.514611 0.203179
0.001535 0.007716 0.005992 0.098017 0.995185 -0.000000 0.968750 1.000000
0.003011 0.007269 0.005992 0.290284 0.956940 -0.000000 0.937500 1.000000
0.004371 0.006542 0.005992 0.471397 0.881921 -0.000000 0.906250 1.000000
0.005563 0.005563 0.005992 0.634393 0.773010 -0.000000 0.875000 1.000000
0.006542 0.004371 0.005992 0.773010 0.634394 -0.000000 0.843750 1.000000
0.007269 0.003011 0.005992 0.881921 0.471396 -0.000000 0.812500 1.000000
0.007716 0.001535 0.005992 0.956940 0.290285 -0.000000 0.781250 1.000000
0.007867 0.000000 0.005992 0.995185 0.098017 -0.000000 0.750000 1.000000
0.007716 -0.001535 0.005992 0.995185 -0.098017 0.000000 0.718750 1.000000
0.007269 -0.003011 0.005992 0.956940 -0.290285 0.000000 0.687500 1.000000
0.006542 -0.004371 0.005992 0.881922 -0.471396 0.000000 0.656250 1.000000
0.005563 -0.005563 0.005992 0.773010 -0.634394 0.000000 0.625000 1.000000
0.004371 -0.006542 0.005992 0.634394 -0.773010 0.000000 0.593750 1.000000
0.003011 -0.007269 0.005992 0.471397 -0.881921 0.000000 0.562500 1.000000
0.001535 -0.007716 0.005992 0.290284 -0.956941 0.000000 0.531250 1.000000
-0.000000 -0.007867 0.005992 0.098017 -0.995185 0.000000 0.500000 1.000000
-0.001535 -0.007716 0.005992 -0.098018 -0.995185 0.000000 0.468750 1.000000
-0.003011 -0.007269 0.005992 -0.290285 -0.956940 0.000000 0.437500 1.000000
-0.004371 -0.006542 0.005992 -0.471397 -0.881921 0.000000 0.406250 1.000000
-0.005563 -0.005563 0.005992 -0.634394 -0.773010 0.000000 0.375000 1.000000
-0.006542 -0.004371 0.005992 -0.773011 -0.634393 0.000000 0.343750 1.000000
-0.007269 -0.003011 0.005992 -0.881922 -0.471396 0.000000 0.312500 1.000000
-0.007716 -0.001535 0.005992 -0.956941 -0.290284 0.000000 0.281250 1.000000
-0.007867 0.000000 0.005992 -0.995185 -0.098016 0.000000 0.250000 1.000000
-0.007716 0.001535 0.005992 -0.995185 0.098018 0.000000 0.218750 1.000000
-0.007269 0.003011 0.005992 -0.956940 0.290286 0.000000 0.187500 1.000000
-0.006542 0.004371 0.005992 -0.881921 0.471398 0.000000 0.156250 1.000000
-0.005563 0.005563 0.005992 -0.773010 0.634394 0.000000 0.125000 1.000000
-0.004371 0.006542 0.005992 -0.634392 0.773011 0.000000 0.093750 1.000000
-0.003011 0.007269 0.005992 -0.471395 0.881922 0.000000 0.062500 1.000000
0.003011 0.007269 0.005992 0.000000 0.000000 1.000000 0.341844 0.471731
0.001535 0.007716 0.005992 0.000000 0.000000 1.000000 0.296822 0.485388
-0.000000 0.007867 0.005992 0.000000 0.000000 1.000000 0.250000 0.490000
-0.001535 0.007716 0.005992 0.000000 -0.000000 1.000000 0.203179 0.485389
-0.003011 0.007269 0.005992 0.000000 -0.000000 1.000000 0.158156 0.471731
-0.004371 0.006542 0.005992 0.000000 0.000000 1.000000 0.116663 0.449553
-0.005563 0.005563 0.005992 0.000000 0.000000 1.000000 0.080295 0.419706
-0.006542 0.004371 0.005992 0.000000 0.000000 1.000000 0.050447 0.383337
-0.007716 0.001535 0.005992 0.000000 0.000000 1.000000 0.014612 0.296822
-0.007867 0.000000 0.005992 0.000000 0.000000 1.000000 0.010000 0.250000
-0.007716 -0.001535 0.005992 0.000000 0.000000 1.000000 0.014611 0.203179
-0.007269 -0.003011 0.005992 0.000000 0.000000 1.000000 0.028269 0.158156
-0.006542 -0.004371 0.005992 0.000000 0.000000 1.000000 0.050447 0.116663
-0.005563 -0.005563 0.005992 0.000000 0.000000 1.000000 0.080294 0.080294
-0.004371 -0.006542 0.005992 0.000000 0.000000 1.000000 0.116663 0.050447
-0.001535 -0.007716 0.005992 0.000000 0.000000 1.000000 0.203178 0.014612
-0.000000 -0.007867 0.005992 0.000000 0.000000 1.000000 0.250000 0.010000
0.001535 -0.007716 0.005992 0.000000 0.000000 1.000000 0.296822 0.014612
0.003011 -0.007269 0.005992 0.000000 0.000000 1.000000 0.341844 0.028269
0.004371 -0.006542 0.005992 0.000000 0.000000 1.000000 0.383337 0.050447
0.005563 -0.005563 0.005992 0.000000 0.000000 1.000000 0.419706 0.080294
0.006542 -0.004371 0.005992 0.000000 0.000000 1.000000 0.449553 0.116663
0.007716 -0.001535 0.005992 0.000000 0.000000 1.000000 0.485388 0.203178
0.007867 0.000000 0.005992 0.000000 0.000000 1.000000 0.490000 0.250000
0.007716 0.001535 0.005992 -0.000000 0.000000 1.000000 0.485388 0.296822
0.007269 0.003011 0.005992 -0.000000 -0.000000 1.000000 0.471731 0.341844
0.006542 0.004371 0.005992 0.000000 0.000000 1.000000 0.449553 0.383337
0.005563 0.005563 0.005992 0.000000 0.000000 1.000000 0.419706 0.419706
0.004371 0.006542 0.005992 0.000000 0.000000 1.000000 0.383337 0.449553
-0.001535 0.007716 0.005992 -0.290283 0.956941 0.000000 0.031250 1.000000
-0.000000 0.007867 0.005992 -0.098016 0.995185 -0.000000 0.000000 1.000000
-0.001535 0.007716 -0.000003 -0.000000 0.000000 -1.000000 0.703179 0.485389
-0.000000 0.007867 -0.000003 -0.000000 0.000000 -1.000000 0.750000 0.490000
0.001535 0.007716 -0.000003 -0.000000 0.000000 -1.000000 0.796822 0.485388
0.003011 0.007269 -0.000003 0.000000 0.000000 -1.000000 0.841844 0.471731
0.004371 0.006542 -0.000003 0.000000 0.000000 -1.000000 0.883337 0.449553
0.005563 0.005563 -0.000003 0.000000 0.000000 -1.000000 0.919706 0.419706
0.006542 0.004371 -0.000003 0.000000 0.000000 -1.000000 0.949553 0.383337
0.007269 0.003011 -0.000003 0.000000 0.000000 -1.000000 0.971731 0.341844
0.007867 0.000000 -0.000003 0.000000 0.000000 -1.000000 0.990000 0.250000
0.007716 -0.001535 -0.000003 0.000000 0.000000 -1.000000 0.985388 0.203178
0.007269 -0.003011 -0.000003 0.000000 -0.000000 -1.000000 0.971731 0.158156
0.006542 -0.004371 -0.000003 0.000000 -0.000000 -1.000000 0.949553 0.116663
0.005563 -0.005563 -0.000003 0.000000 0.000000 -1.000000 0.919706 0.080294
0.004371 -0.006542 -0.000003 0.000000 0.000000 -1.000000 0.883337 0.050447
0.003011 -0.007269 -0.000003 0.000000 0.000000 -1.000000 0.841844 0.028269
-0.000000 -0.007867 -0.000003 0.000000 0.000000 -1.000000 0.750000 0.010000
-0.001535 -0.007716 -0.000003 0.000000 0.000000 -1.000000 0.703178 0.014612
-0.003011 -0.007269 -0.000003 0.000000 0.000000 -1.000000 0.658156 0.028269
-0.004371 -0.006542 -0.000003 0.000000 0.000000 -1.000000 0.616663 0.050447
-0.005563 -0.005563 -0.000003 0.000000 0.000000 -1.000000 0.580294 0.080294
-0.006542 -0.004371 -0.000003 0.000000 0.000000 -1.000000 0.550447 0.116663
-0.007269 -0.003011 -0.000003 0.000000 0.000000 -1.000000 0.528269 0.158156
-0.007867 0.000000 -0.000003 0.000000 -0.000000 -1.000000 0.510000 0.250000
-0.007716 0.001535 -0.000003 0.000000 -0.000000 -1.000000 0.514612 0.296822
-0.007269 0.003011 -0.000003 0.000000 0.000000 -1.000000 0.528269 0.341844
-0.006542 0.004371 -0.000003 0.000000 0.000000 -1.000000 0.550447 0.383337
-0.005563 0.005563 -0.000003 0.000000 0.000000 -1.000000 0.580295 0.419706
-0.004371 0.006542 -0.000003 0.000000 0.000000 -1.000000 0.616663 0.449553
-0.003011 0.007269 -0.000003 0.000000 0.000000 -1.000000 0.658156 0.471731
3 0 1 2
3 3 4 5
3 6 7 8
3 9 10 11
3 12 13 14
3 15 16 17
3 18 19 20
3 21 22 23
3 24 25 26
3 27 28 29
3 30 31 32
3 33 34 35
3 36 37 38
3 39 40 41
3 42 43 44
3 45 46 47
3 48 49 50
3 51 52 53
3 54 55 56
3 57 58 59
3 60 61 62
3 63 64 65
3 66 67 68
3 69 70 71
3 72 73 74
3 75 76 77
3 78 79 80
3 81 82 83
3 84 85 86
3 87 88 89
3 90 91 92
3 93 94 95
3 96 97 98
3 99 100 101
3 0 102 1
3 3 103 4
3 6 104 7
3 9 105 10
3 12 106 13
3 15 107 16
3 18 108 19
3 21 109 22
3 24 110 25
3 27 111 28
3 30 112 31
3 33 113 34
3 36 114 37
3 39 115 40
3 42 116 43
3 45 117 46
3 48 118 49
3 51 119 52
3 54 120 55
3 57 121 58
3 60 122 61
3 63 123 64
3 66 124 67
3 69 125 70
3 72 126 73
3 75 127 76
3 78 128 79
3 81 129 82
3 84 130 85
3 87 131 88
3 132 133 134
3 134 135 132
3 135 136 132
3 136 137 138
3 138 139 90
3 90 140 141
3 141 142 90
3 142 143 90
3 143 144 91
3 144 145 91
3 145 146 91
3 91 147 148
3 148 149 150
3 150 151 152
3 152 153 92
3 92 154 155
3 155 156 92
3 156 157 92
3 157 158 159
3 159 160 132
3 136 138 132
3 138 90 132
3 91 148 92
3 148 150 92
3 150 152 92
3 157 159 92
3 159 132 92
3 90 143 91
3 132 90 92
3 93 161 94
3 96 162 97
3 163 164 165
3 165 166 167
3 167 168 169
3 169 170 167
3 170 99 167
3 99 171 172
3 172 173 99
3 173 174 99
3 174 175 100
3 175 176 100
3 176 177 100
3 100 178 179
3 179 180 181
3 181 182 183
3 183 184 101
3 101 185 186
3 186 187 188
3 188 189 163
3 189 190 163
3 190 191 163
3 163 165 167
3 100 179 101
3 179 181 101
3 181 183 101
3 101 186 163
3 186 188 163
3 163 167 99
3 99 174 100
3 163 99 101
