ply
format ascii 1.0
comment Created by Blender 2.82 (sub 7) - www.blender.org, source file: ''
element vertex 74
property float x
property float y
property float z
property float nx
property float ny
property float nz
property float s
property float t
element face 44
property list uchar uint vertex_indices
end_header
-0.043746 -0.027465 0.087059 -1.000000 0.000000 0.000000 0.625000 0.000000
-0.043746 0.027465 -0.000432 -1.000000 0.000000 0.000000 0.375000 0.250000
-0.043746 -0.027465 -0.000432 -1.000000 0.000000 0.000000 0.375000 0.000000
-0.043746 0.027465 0.087059 0.000000 1.000000 -0.000000 0.625000 0.250000
0.043746 0.027465 -0.000432 0.000000 1.000000 -0.000000 0.375000 0.500000
-0.043746 0.027465 -0.000432 0.000000 1.000000 -0.000000 0.375000 0.250000
0.043746 0.027465 0.087059 1.000000 0.000000 -0.000000 0.625000 0.500000
0.043746 -0.027465 -0.000432 1.000000 0.000000 -0.000000 0.375000 0.750000
0.043746 0.027465 -0.000432 1.000000 0.000000 -0.000000 0.375000 0.500000
0.043746 -0.027465 0.087059 0.000000 -1.000000 0.000000 0.625000 0.750000
-0.043746 -0.027465 -0.000432 0.000000 -1.000000 0.000000 0.375000 1.000000
0.043746 -0.027465 -0.000432 0.000000 -1.000000 0.000000 0.375000 0.750000
0.043746 0.027465 -0.000432 0.000000 0.000000 -1.000000 0.375000 0.500000
-0.043746 -0.027465 -0.000432 0.000000 0.000000 -1.000000 0.125000 0.750000
-0.043746 0.027465 -0.000432 0.000000 0.000000 -1.000000 0.125000 0.500000
0.043746 0.027465 0.087059 0.000000 0.000000 1.000000 0.625000 0.500000
0.035255 0.003471 0.087059 0.000000 0.000000 1.000000 0.625000 0.625000
0.035255 -0.003370 0.087059 0.000000 0.000000 1.000000 0.625000 0.687500
-0.035255 0.003471 0.087059 1.000000 0.000000 0.000000 0.625000 0.125000
-0.035255 0.022135 0.006015 1.000000 0.000000 0.000000 0.625000 0.250000
-0.035255 0.022135 0.087059 1.000000 0.000000 0.000000 0.625000 0.250000
-0.043746 -0.027465 0.087059 0.000000 0.000000 1.000000 0.625000 0.000000
-0.035255 -0.022135 0.087059 0.000000 0.000000 1.000000 0.625000 0.000000
-0.035255 -0.003370 0.087059 0.000000 0.000000 1.000000 0.625000 0.062500
0.043746 -0.027465 0.087059 -0.000000 0.000000 1.000000 0.625000 0.750000
-0.035255 -0.022135 0.087059 -0.000000 0.000000 1.000000 0.625000 1.000000
-0.043746 -0.027465 0.087059 -0.000000 0.000000 1.000000 0.625000 1.000000
-0.043746 0.027465 0.087059 0.000000 0.000000 1.000000 0.625000 0.250000
0.035255 0.022135 0.087059 0.000000 0.000000 1.000000 0.625000 0.500000
-0.035255 0.003471 0.087059 0.000000 0.000000 1.000000 0.625000 0.125000
-0.035255 -0.022135 0.087059 1.000000 0.000000 0.000000 0.625000 0.000000
-0.035255 -0.003370 0.006015 1.000000 0.000000 0.000000 0.625000 0.062500
-0.035255 -0.003370 0.087059 1.000000 0.000000 0.000000 0.625000 0.062500
-0.035255 -0.003370 0.006015 0.000000 0.000000 1.000000 0.625000 0.062500
0.035255 -0.022135 0.006015 0.000000 0.000000 1.000000 0.625000 0.750000
0.035255 -0.003370 0.006015 0.000000 0.000000 1.000000 0.625000 0.687500
0.035255 0.003471 0.006015 -0.000000 0.000000 1.000000 0.625000 0.625000
-0.035255 0.022135 0.006015 -0.000000 0.000000 1.000000 0.625000 0.250000
-0.035255 0.003471 0.006015 -0.000000 0.000000 1.000000 0.625000 0.125000
0.035255 -0.022135 0.087059 -0.000000 1.000000 0.000000 0.625000 0.750000
-0.035255 -0.022135 0.006015 -0.000000 1.000000 0.000000 0.625000 1.000000
-0.035255 -0.022135 0.087059 -0.000000 1.000000 0.000000 0.625000 1.000000
0.035255 0.003471 0.087059 -0.000000 1.000000 0.000000 0.625000 0.625000
-0.035255 0.003471 0.006015 -0.000000 1.000000 0.000000 0.625000 0.125000
-0.035255 0.003471 0.087059 -0.000000 1.000000 0.000000 0.625000 0.125000
-0.035255 0.022135 0.087059 -0.000000 -1.000000 -0.000000 0.625000 0.250000
0.035255 0.022135 0.006015 -0.000000 -1.000000 -0.000000 0.625000 0.500000
0.035255 0.022135 0.087059 -0.000000 -1.000000 -0.000000 0.625000 0.500000
0.035255 0.022135 0.087059 -1.000000 0.000000 0.000000 0.625000 0.500000
0.035255 0.003471 0.006015 -1.000000 0.000000 0.000000 0.625000 0.625000
0.035255 0.003471 0.087059 -1.000000 0.000000 0.000000 0.625000 0.625000
-0.035255 -0.003370 0.087059 -0.000000 -1.000000 -0.000000 0.625000 0.062500
0.035255 -0.003370 0.006015 -0.000000 -1.000000 -0.000000 0.625000 0.687500
0.035255 -0.003370 0.087059 -0.000000 -1.000000 -0.000000 0.625000 0.687500
0.035255 -0.003370 0.087059 -1.000000 0.000000 0.000000 0.625000 0.687500
0.035255 -0.022135 0.006015 -1.000000 0.000000 0.000000 0.625000 0.750000
0.035255 -0.022135 0.087059 -1.000000 0.000000 0.000000 0.625000 0.750000
-0.043746 0.027465 0.087059 -1.000000 0.000000 0.000000 0.625000 0.250000
0.043746 0.027465 0.087059 0.000000 1.000000 -0.000000 0.625000 0.500000
0.043746 -0.027465 0.087059 1.000000 0.000000 0.000000 0.625000 0.750000
-0.043746 -0.027465 0.087059 0.000000 -1.000000 0.000000 0.625000 1.000000
0.043746 -0.027465 -0.000432 0.000000 0.000000 -1.000000 0.375000 0.750000
0.035255 -0.022135 0.087059 0.000000 0.000000 1.000000 0.625000 0.750000
-0.035255 0.003471 0.006015 1.000000 0.000000 -0.000000 0.625000 0.125000
-0.035255 0.022135 0.087059 -0.000000 -0.000000 1.000000 0.625000 0.250000
-0.035255 -0.022135 0.006015 1.000000 0.000000 -0.000000 0.625000 0.000000
-0.035255 -0.022135 0.006015 0.000000 -0.000000 1.000000 0.625000 0.000000
0.035255 0.022135 0.006015 -0.000000 0.000000 1.000000 0.625000 0.500000
0.035255 -0.022135 0.006015 0.000000 1.000000 0.000000 0.625000 0.750000
0.035255 0.003471 0.006015 0.000000 1.000000 0.000000 0.625000 0.625000
-0.035255 0.022135 0.006015 0.000000 -1.000000 0.000000 0.625000 0.250000
0.035255 0.022135 0.006015 -1.000000 0.000000 0.000000 0.625000 0.500000
-0.035255 -0.003370 0.006015 0.000000 -1.000000 0.000000 0.625000 0.062500
0.035255 -0.003370 0.006015 -1.000000 0.000000 0.000000 0.625000 0.687500
3 0 1 2
3 3 4 5
3 6 7 8
3 9 10 11
3 12 13 14
3 15 16 17
3 18 19 20
3 21 22 23
3 24 25 26
3 27 28 15
3 29 17 16
3 30 31 32
3 33 34 35
3 36 37 38
3 39 40 41
3 42 43 44
3 45 46 47
3 48 49 50
3 51 52 53
3 54 55 56
3 0 57 1
3 3 58 4
3 6 59 7
3 9 60 10
3 12 61 13
3 62 24 17
3 24 15 17
3 15 28 16
3 18 63 19
3 64 27 29
3 27 21 23
3 29 27 23
3 24 62 25
3 27 64 28
3 29 23 17
3 30 65 31
3 33 66 34
3 36 67 37
3 39 68 40
3 42 69 43
3 45 70 46
3 48 71 49
3 51 72 52
3 54 73 55
